# xmcd CD database file
#
# Track frame offsets:
#	150
#	14177
#	35662
#	59975
#	78957
#	96115
#	109214
#	138737
#	153008
#	169562
#	183737
#	194900
#
# Disc length: 2758 seconds
#
# Revision: 4
# Processed by: cddbd v1.5.2PL0 Copyright (c) Steve Scherf et al.
# Submitted via: CDex 1.51
#
DISCID=b20ac40c
DTITLE=Paolo Conte - Live Arena Di Verona - CD1
DYEAR=2005
DGENRE=Jazz
TTITLE0=Cuanta Pasión (Live)
TTITLE1=La Donna D'Inverno (Live)
TTITLE2=Sparring Partner (Live)
TTITLE3=Come-Di (Live)
TTITLE4=Elegia (Live)
TTITLE5=Sotto Le Stelle Del Jazz (Live)
TTITLE6=Alle Prese Con Una Verde Milonga (Live)
TTITLE7=Sandwich Man (Live)
TTITLE8=Schiava Del Politeama (Live)
TTITLE9=Genova Per Noi (Live)
TTITLE10=Via Con Me (Live)
TTITLE11=Molto Lontano (Live)
EXTD=YEAR: 2005
EXTT0=
EXTT1=
EXTT2=
EXTT3=
EXTT4=
EXTT5=
EXTT6=
EXTT7=
EXTT8=
EXTT9=
EXTT10=
EXTT11=
PLAYORDER=
